<svg width="1280" height="223" viewBox="0 0 1280 223" fill="none" xmlns="http://www.w3.org/2000/svg">
<rect width="1281" height="192" transform="translate(0 31)" fill="#1B1C1D"/>
<path d="M115.962 44.1056C87.9326 36.1179 65.1502 46.7984 42.2279 55.2784C20.8452 63.184 0.0710372 72.2432 -20.646 81.2572C-35.7132 87.8296 -48.4757 83.5323 -57.8836 74.5632C-66.7873 66.0591 -68.4468 54.6771 -53.7299 48.8328C-21.7861 36.1252 10.0589 22.3627 43.7631 13.6641C70.2942 6.79094 99.5381 4.81005 127.621 4.73706C139.422 4.66984 153.428 13.4272 162.569 21.1559C170.084 27.4882 174.541 29.3356 184.953 27.1423C218.238 20.0411 251.666 10.8349 285.615 9.05603C308.154 7.89934 332.371 16.705 354.513 23.7417C366.883 27.6672 376.341 28.8504 389.429 25.961C430.683 16.9537 472.381 8.5937 514.499 2.75868C527.402 0.966038 543.497 6.31674 556.018 11.6642C571.753 18.4298 585.663 17.6586 601.88 14.1251C647.686 4.12674 696.614 -6.01201 738.8 16.323C765.778 30.6172 786.33 25.3567 808.725 18.1062C843.541 6.90365 879.433 8.35769 915.453 8.62254C921.523 8.70575 929 9.44943 933.329 12.3486C951.487 24.4606 968.756 18.6973 988.047 14.3814C1014.62 8.42493 1042.34 5.87345 1069.41 1.48096C1084.59 -0.967503 1097.31 2.00101 1106.08 12.198C1116.41 24.2485 1129.7 23.0108 1144.76 20.8814C1182.96 15.5422 1221.21 10.3871 1259.62 6.47071C1282.62 4.12957 1296.52 12.4273 1305.6 28.9494C1307.87 33.1028 1314.47 35.621 1318.16 39.4733C1323.31 44.8112 1330.83 50.5024 1331.21 56.2788C1331.55 60.589 1323.22 67.5744 1316.96 69.4122C1290.59 77.1579 1272.74 71.4167 1263.49 50.9989C1258.31 39.6145 1250.25 39.8246 1239.62 41.7399C1203.84 48.12 1168.29 55.4648 1132.3 60.8801C1110.87 64.1131 1090 63.2774 1075.9 44.8085C1072.45 40.2724 1058.42 37.5609 1050.91 39.1069C1026.16 44.1724 1002.07 51.2621 977.917 58.1222C962.995 62.3605 947.238 65.4423 934.827 56.2031C903.434 32.8709 869.532 39.4599 836.039 49.3064C811.489 56.5274 788.037 66.3284 764.425 75.486C746.972 82.2546 723.715 73.8286 718.176 55.7519C713.993 42.2741 704.724 39.6737 690.088 39.6104C652.819 39.42 617.512 44.9819 583.913 58.3997C559.384 68.186 542.379 63.0518 524.142 44.2514C520.506 40.4915 509.935 37.7816 504.187 39.0769C465.092 47.8848 425.605 56.2751 387.83 68.1241C357.062 77.779 346.863 76.8604 326.043 56.1467C319.439 49.5978 305.521 42.674 296.485 43.8326C262.615 48.086 229.382 55.4626 195.992 61.9669C192.181 62.6934 188.295 64.7471 185.484 67.0445C155.359 91.8692 128.301 79.2686 118.129 51.5554C117.143 48.9769 116.613 46.2673 115.963 44.0141L115.962 44.1056Z" fill="#1B1C1D"/>
</svg>
